<?xml version="1.0" encoding="utf-8"?>
<!-- Generator: Adobe Illustrator 26.0.2, SVG Export Plug-In . SVG Version: 6.00 Build 0)  -->
<svg version="1.1" id="Calque_1" xmlns="http://www.w3.org/2000/svg" xmlns:xlink="http://www.w3.org/1999/xlink" x="0px" y="0px"
	 viewBox="0 0 512 512" style="enable-background:new 0 0 512 512;" xml:space="preserve">
<style type="text/css">
	.st0{fill:#E1EBF0;}
	.st1{fill:#B4D2D7;}
	.st2{fill:#FED2A4;}
	.st3{fill:#FFBD86;}
	.st4{fill:#6AD394;}
	.st5{fill:#DF1818;}
	.st6{fill:#FFFFFF;}
	.st7{fill:#DFDFDF;}
	.st8{fill:#FF1C1C;}
</style>
<path class="st0" d="M399.4,229.48c0,108.2-87.71,195.91-195.91,195.91S7.57,337.69,7.57,229.48c0-108.2,87.71-195.91,195.91-195.91
	S399.4,121.29,399.4,229.48z"/>
<path class="st1" d="M323.09,74.37c25.55,33.09,40.8,74.56,40.8,119.61c0,108.2-87.71,195.91-195.91,195.91
	c-45.05,0-86.51-15.24-119.61-40.8c35.83,46.39,91.96,76.31,155.12,76.31c108.2,0,195.91-87.71,195.91-195.91
	C399.4,166.33,369.49,110.2,323.09,74.37z"/>
<path class="st2" d="M278.02,161.34c0,41.16-33.37,74.53-74.53,74.53c-41.16,0-74.54-33.37-74.54-74.53
	c0-41.16,33.37-74.54,74.54-74.54C244.65,86.81,278.02,120.18,278.02,161.34z"/>
<path class="st2" d="M247.57,268.67h-88.16c-48.69,0-88.16,39.47-88.16,88.16v17.19c34.85,31.91,81.27,51.38,132.24,51.38
	c50.97,0,97.39-19.48,132.24-51.38v-17.19C335.73,308.14,296.26,268.67,247.57,268.67z"/>
<path class="st3" d="M167.98,389.89c-35.19,0-68.19-9.33-96.73-25.57v9.7c34.85,31.91,81.27,51.38,132.24,51.38
	c50.97,0,97.39-19.48,132.24-51.38v-17.19c0-16.11-4.34-31.2-11.89-44.19C288.05,359.57,231.56,389.89,167.98,389.89z"/>
<path class="st4" d="M469.12,300.22c15.14,17.66,24.29,40.6,24.29,65.69c0,55.77-45.21,100.98-100.98,100.98
	c-25.08,0-48.03-9.15-65.69-24.29c18.52,21.61,46.01,35.3,76.7,35.3c55.77,0,100.98-45.21,100.98-100.98
	C504.43,346.23,490.73,318.75,469.12,300.22z"/>
<path class="st0" d="M465.04,361.78h-46.45v-46.45h-30.3v46.45h-46.45v30.3h46.45v46.45h30.3v-46.45h46.45V361.78z"/>
<path d="M285.59,161.34c0-45.28-36.83-82.11-82.11-82.11s-82.11,36.83-82.11,82.11c0,45.27,36.83,82.11,82.11,82.11
	S285.59,206.61,285.59,161.34z M136.53,161.34c0-36.92,30.04-66.96,66.96-66.96c36.92,0,66.96,30.04,66.96,66.96
	c0,36.92-30.04,66.96-66.96,66.96C166.57,228.3,136.53,198.26,136.53,161.34z"/>
<g id="Pokéball_1_">
	<path id="Line" d="M204.57,57.58c90.56,0,164.85,69.48,172.39,158.04H269.24c-6.41-30.45-33.42-53.38-65.8-53.38
		s-59.39,22.92-65.8,53.38H32.18C39.79,127.06,114.09,57.58,204.57,57.58z M240.55,215.62c1.6,4.33,2.48,8.98,2.48,13.86l0,0h0.08
		l0,0c0,4.89-0.88,9.54-2.48,13.86c-5.61,15.07-20.12,25.73-37.11,25.73c-16.99,0-31.5-10.74-37.11-25.73
		c-1.6-4.33-2.48-8.98-2.48-13.86l0,0h-0.08l0,0c0-4.89,0.88-9.54,2.48-13.86c5.61-15.07,20.12-25.73,37.11-25.73
		S234.94,200.63,240.55,215.62z M202.32,401.47c-90.56,0-164.85-69.48-172.39-158.04h107.71c6.41,30.45,33.42,53.38,65.8,53.38
		s59.39-22.92,65.8-53.38h105.55C367.18,331.91,292.89,401.47,202.32,401.47z M203.45,24.56C90.28,24.56-1.48,116.32-1.48,229.49
		s91.76,204.93,204.93,204.93s205.01-91.68,205.01-204.93S316.69,24.56,203.45,24.56z"/>
</g>
<path class="st5" d="M504.43,376.93c0,55.77-45.21,100.98-100.98,100.98S302.45,432.7,302.45,376.93s45.21-100.99,100.99-100.99
	S504.43,321.15,504.43,376.93z"/>
<path d="M489.47,310.7c-2.56-3.31-7.31-3.93-10.62-1.37s-3.93,7.31-1.38,10.62c12.68,16.45,19.38,36.15,19.38,56.98
	c0,51.51-41.9,93.41-93.41,93.41s-93.41-41.91-93.41-93.41s41.91-93.41,93.41-93.41c17.36,0,34.3,4.79,49,13.86
	c3.56,2.2,8.23,1.09,10.42-2.46c2.2-3.56,1.09-8.23-2.46-10.43c-17.09-10.55-36.78-16.12-56.95-16.12c-0.07,0-0.13,0-0.2,0
	c2.47-12.75,3.74-25.79,3.74-38.88C406.98,117.29,315.69,26,203.49,26c-48.38,0-95.26,17.27-132.02,48.63
	c-3.18,2.71-3.56,7.5-0.84,10.68c2.71,3.18,7.5,3.56,10.68,0.84c34.02-29.02,77.41-45.01,122.18-45.01
	c103.85,0,188.34,84.49,188.34,188.34c0,13.52-1.45,26.96-4.28,40.04c-24.14,3.56-45.71,15.09-61.96,31.82
	c-17.84-25.05-46.91-40.26-78.02-40.26h-88.16c-52.36,0-95.03,42.25-95.72,94.46c-30.16-33.41-48.54-77.63-48.54-126.07
	c0-43.12,14.95-85.26,42.07-118.66c2.64-3.25,2.14-8.02-1.11-10.65c-3.25-2.64-8.02-2.14-10.65,1.11C16.14,137.37,0,182.9,0,229.48
	c0,112.2,91.29,203.49,203.49,203.49c33.67,0,66.72-8.32,96.18-24.13c13.66,44.33,55.01,76.64,103.77,76.64
	c59.86,0,108.56-48.7,108.56-108.56C512,352.72,504.21,329.82,489.47,310.7z M203.49,417.82c-47.77,0-91.43-17.88-124.67-47.3v-13.7
	c0-44.43,36.15-80.59,80.59-80.59h88.16c27.52,0,53.13,14.14,67.88,37.17c-12.93,17.87-20.57,39.82-20.57,63.51
	c0,5.62,0.43,11.15,1.26,16.55C267.98,409.41,236.05,417.82,203.49,417.82z"/>
<g id="Colours">
	<path id="Down" class="st6" d="M203.45,296.73c-32.38,0-59.39-22.92-65.8-53.38H29.94c7.61,88.56,81.91,158.04,172.39,158.04
		s164.85-69.48,172.39-158.04H269.24C262.83,273.89,235.82,296.73,203.45,296.73z"/>
	<path id="Shadow_Down" class="st7" d="M241.91,396.91c71.81-16.83,126.39-78.3,132.8-153.55h-42.48
		C327.99,311.63,292.16,369.5,241.91,396.91z"/>
	<path id="Center" class="st6" d="M243.12,229.49L243.12,229.49C243.04,229.49,243.04,229.49,243.12,229.49
		c-0.08-4.89-0.96-9.54-2.56-13.86c-5.61-15.07-20.12-25.73-37.11-25.73s-31.5,10.74-37.11,25.73c-1.6,4.33-2.48,8.98-2.48,13.86
		l0,0h0.08l0,0c0,4.89,0.88,9.54,2.48,13.86c5.61,15.07,20.12,25.73,37.11,25.73s31.5-10.74,37.11-25.73
		C242.24,239.1,243.12,234.38,243.12,229.49L243.12,229.49z"/>
	<path id="Up" class="st8" d="M203.53,162.33c32.38,0,59.39,22.92,65.8,53.38h107.71c-7.61-88.64-81.91-158.12-172.47-158.12
		S39.79,127.06,32.18,215.62h105.55C144.14,185.17,171.15,162.33,203.53,162.33z"/>
	<path id="Shadow_Up" class="st5" d="M332.24,215.62h44.72c-6.57-76.54-62.99-138.89-136.64-154.36
		C291.44,88.27,327.91,146.7,332.24,215.62z"/>
</g>
<path class="st6" d="M444.35,388.42h-80.81c-6.63,0-12-5.37-12-12s5.37-12,12-12h80.81c6.63,0,12,5.37,12,12
	S450.97,388.42,444.35,388.42z"/>
</svg>
