<?xml version="1.0" encoding="utf-8"?>
<!-- Generator: Adobe Illustrator 26.0.2, SVG Export Plug-In . SVG Version: 6.00 Build 0)  -->
<svg version="1.1" id="Calque_1" xmlns="http://www.w3.org/2000/svg" xmlns:xlink="http://www.w3.org/1999/xlink" x="0px" y="0px"
	 viewBox="0 0 424 424" style="enable-background:new 0 0 424 424;" xml:space="preserve">
<style type="text/css">
	.st0{fill:#FFFFFF;}
	.st1{fill:#4C241D;}
	.st2{fill:#F53E28;}
	.st3{fill:#EDEBDC;}
</style>
<g>
	<path class="st0" d="M212,357.9c80.6,0,145.9-65.9,145.9-147.2H66.1C66.1,292,131.4,357.9,212,357.9z"/>
	<path class="st1" d="M212,364.7c-84.2,0-152.7-69.1-152.7-154c0-3.8,3-6.8,6.8-6.8h291.9c3.8,0,6.8,3,6.8,6.8
		C364.7,295.6,296.2,364.7,212,364.7z M73,217.5c3.5,74.3,64.5,133.6,139,133.6c74.4,0,135.4-59.3,139-133.6H73z"/>
	<path class="st0" d="M262.3,74.9c-15.7-5.7-32.6-8.8-50.3-8.8c-80.6,0-145.9,64.8-145.9,144.7h291.9c0-41.6-17.8-79.2-46.2-105.6"
		/>
	<path class="st1" d="M357.9,217.5H66.1c-3.8,0-6.8-3.1-6.8-6.8c0-83.5,68.5-151.5,152.7-151.5c18.1,0,35.8,3.1,52.6,9.2
		c3.5,1.3,5.4,5.2,4.1,8.7c-1.3,3.5-5.2,5.4-8.7,4.1c-15.3-5.6-31.5-8.4-48-8.4c-74.4,0-135.4,58.2-139,131H351
		c-1.7-35.9-17.1-69-43.8-93.8c-2.8-2.6-2.9-6.9-0.4-9.6c2.6-2.8,6.9-2.9,9.6-0.4c30.7,28.5,48.3,68.8,48.3,110.6
		C364.7,214.5,361.7,217.5,357.9,217.5z"/>
	<path class="st2" d="M292.2,90.1c-2.4-1.6-4.9-3.1-7.4-4.6"/>
	<path class="st1" d="M292.2,96.9c-1.3,0-2.6-0.4-3.7-1.1c-2.3-1.5-4.7-3-7.1-4.4c-3.3-1.9-4.4-6-2.5-9.3c1.9-3.3,6-4.4,9.3-2.5
		c2.6,1.5,5.2,3.1,7.8,4.8c3.1,2.1,4,6.3,1.9,9.4C296.6,95.8,294.4,96.9,292.2,96.9z"/>
	<path class="st2" d="M354.2,197.1h-73.7c-6.8-31.6-34.9-55.2-68.5-55.2s-61.7,23.7-68.5,55.2H68.2v27.2H143
		c5.8,32.8,34.5,57.8,69,57.8s63.1-24.9,69-57.8h73.3V197.1z"/>
	<path class="st1" d="M212,288.9c-35.4,0-65.8-24-74.5-57.8H68.2c-3.8,0-6.8-3-6.8-6.8v-27.2c0-3.8,3-6.8,6.8-6.8h70
		c9.5-32.3,39.7-55.2,73.8-55.2c34.1,0,64.3,22.9,73.8,55.2h68.5c3.8,0,6.8,3.1,6.8,6.8v27.2c0,3.8-3,6.8-6.8,6.8h-67.8
		C277.8,265,247.4,288.9,212,288.9z M75,217.5H143c3.3,0,6.1,2.4,6.7,5.6c5.4,30.2,31.6,52.1,62.3,52.1c30.7,0,56.9-21.9,62.3-52.1
		c0.6-3.2,3.4-5.6,6.7-5.6h66.5v-13.6h-66.9c-3.2,0-6-2.2-6.7-5.4c-6.3-28.9-32.3-49.8-61.8-49.8c-29.6,0-55.6,21-61.8,49.8
		c-0.7,3.1-3.4,5.4-6.7,5.4H75V217.5z"/>
	<path class="st3" d="M258.6,212c0,25.7-20.9,46.6-46.6,46.6s-46.6-20.9-46.6-46.6s20.9-46.6,46.6-46.6S258.6,186.3,258.6,212z"/>
	<path class="st1" d="M212,265.4c-29.5,0-53.4-24-53.4-53.4c0-29.5,24-53.4,53.4-53.4c29.5,0,53.4,24,53.4,53.4
		C265.4,241.5,241.5,265.4,212,265.4z M212,172.2c-21.9,0-39.8,17.9-39.8,39.8s17.9,39.8,39.8,39.8c22,0,39.8-17.9,39.8-39.8
		S234,172.2,212,172.2z"/>
	<path class="st3" d="M232.3,212c0,11.2-9.1,20.3-20.3,20.3s-20.3-9.1-20.3-20.3c0-11.2,9.1-20.3,20.3-20.3S232.3,200.8,232.3,212z"
		/>
</g>
</svg>
