<svg id="Capa_1" enable-background="new 0 0 512 512" height="512" viewBox="0 0 512 512" width="512" xmlns="http://www.w3.org/2000/svg"><g><path d="m120.711 238.106v30.616c0 21.79 17.664 39.453 39.453 39.453h59.846v-70.069z" fill="#fb254a"/><path d="m222.848 208.167c0-9.032-.79-17.878-2.292-26.479h-76.078l-64.003-4.772v28.562c0 21.789 17.664 39.453 39.453 39.453h63.735 39.185z" fill="#fc7e58"/><path d="m193.771 118.444-96.885-31.621-56.649 25.075v30.337c0 21.789 17.664 39.453 39.453 39.453h64.787 76.078c-4.073-23.322-13.425-44.83-26.784-63.244z" fill="#fcb365"/><path d="m256 337.383 73.66 30.41c21.832 9.013 27.481 37.328 10.78 54.03-16.701 16.701-45.016 11.052-54.03-10.78l-22.919-22.137z" fill="#b6283e"/><path d="m256 337.383-73.66 30.41c-21.832 9.013-27.481 37.328-10.78 54.03 16.701 16.701 45.016 11.052 54.03-10.78l20.275-18.993z" fill="#fb254a"/><g><path d="m69.882 55.201h-69.882v23.79c0 21.79 17.664 39.453 39.453 39.453h65.839 88.479c-27.798-38.317-72.929-63.243-123.889-63.243z" fill="#fddc65"/></g><path d="m391.289 238.106v30.616c0 21.79-17.664 39.453-39.453 39.453h-59.846v-70.069z" fill="#b6283e"/><path d="m289.152 208.167c0-9.032.79-17.878 2.292-26.479h76.078l64.003-4.772v28.562c0 21.789-17.664 39.453-39.453 39.453h-63.735-39.185z" fill="#fb254a"/><path d="m318.229 118.444 96.886-31.622 56.649 25.075v30.337c0 21.789-17.664 39.453-39.453 39.453h-64.787-76.078c4.072-23.321 13.424-44.829 26.783-63.243z" fill="#fc7e58"/><g><path d="m442.118 55.201h69.882v23.79c0 21.79-17.664 39.453-39.453 39.453h-65.839-88.479c27.798-38.317 72.929-63.243 123.889-63.243z" fill="#fcb365"/></g><g><path d="m225.418 410.972c-9.064 21.811 6.963 45.827 30.582 45.827l12.882-48.579-12.882-70.837z" fill="#b6283e"/><path d="m286.582 410.972-30.582-73.589v119.416c23.619 0 39.646-24.017 30.582-45.827z" fill="#931936"/></g><g><path d="m256 91.13c-17.666 0-31.987 14.321-31.987 31.988v2.847c0 17.049-3.168 33.949-9.342 49.841l-9.93 25.559c-4.936 12.704-7.468 26.214-7.468 39.843 0 26.454 9.532 52.022 26.849 72.02l31.878 36.813 26.159-115.942z" fill="#fddc65"/></g><path d="m307.259 201.364-9.93-25.559c-6.174-15.892-9.342-32.792-9.342-49.841v-34.834h-31.987v258.911l31.879-36.814c17.317-19.998 26.849-45.566 26.849-72.02-.001-13.629-2.533-27.139-7.469-39.843z" fill="#fcb365"/></g></svg>